<mxfile host="app.diagrams.net" modified="2024-04-27T00:35:27.594Z" agent="Mozilla/5.0 (Windows NT 10.0; Win64; x64) AppleWebKit/537.36 (KHTML, like Gecko) Chrome/121.0.0.0 Safari/537.36 OPR/107.0.0.0" etag="srT1oMWCMnnvPFhxuvkV" version="24.3.0" type="device">
  <diagram name="PÃ¡gina-1" id="7zFQuxkAEMoUQsQ7GLs5">
    <mxGraphModel dx="1393" dy="758" grid="1" gridSize="10" guides="1" tooltips="1" connect="1" arrows="1" fold="1" page="1" pageScale="1" pageWidth="827" pageHeight="1169" math="0" shadow="0">
      <root>
        <mxCell id="0" />
        <mxCell id="1" parent="0" />
        <mxCell id="tF0CzcPY2EM89swh9l6V-28" value="view: View" style="shape=umlLifeline;perimeter=lifelinePerimeter;whiteSpace=wrap;html=1;container=1;collapsible=0;recursiveResize=0;outlineConnect=0;rounded=1;shadow=0;comic=0;labelBackgroundColor=none;strokeWidth=1;fontFamily=Verdana;fontSize=12;align=center;" parent="1" vertex="1">
          <mxGeometry x="290" y="90" width="100" height="730" as="geometry" />
        </mxCell>
        <mxCell id="tF0CzcPY2EM89swh9l6V-29" value="" style="html=1;points=[];perimeter=orthogonalPerimeter;rounded=0;shadow=0;comic=0;labelBackgroundColor=none;strokeWidth=1;fontFamily=Verdana;fontSize=12;align=center;" parent="tF0CzcPY2EM89swh9l6V-28" vertex="1">
          <mxGeometry x="45" y="100" width="10" height="50" as="geometry" />
        </mxCell>
        <mxCell id="tF0CzcPY2EM89swh9l6V-30" value="2" style="html=1;verticalAlign=bottom;endArrow=open;dashed=1;endSize=8;edgeStyle=elbowEdgeStyle;elbow=vertical;curved=0;rounded=0;" parent="tF0CzcPY2EM89swh9l6V-28" target="tF0CzcPY2EM89swh9l6V-37" edge="1">
          <mxGeometry relative="1" as="geometry">
            <mxPoint x="45" y="139" as="sourcePoint" />
            <mxPoint x="-35" y="139" as="targetPoint" />
          </mxGeometry>
        </mxCell>
        <mxCell id="tF0CzcPY2EM89swh9l6V-58" value="" style="html=1;verticalAlign=bottom;endArrow=open;dashed=1;endSize=8;edgeStyle=elbowEdgeStyle;elbow=vertical;curved=0;rounded=0;" parent="tF0CzcPY2EM89swh9l6V-28" source="Z2WdJ4EV3QoHxpAlblBz-6" edge="1">
          <mxGeometry x="0.0347" y="-10" relative="1" as="geometry">
            <mxPoint x="719.5" y="650" as="sourcePoint" />
            <mxPoint x="-130" y="650" as="targetPoint" />
            <Array as="points">
              <mxPoint x="170" y="650" />
              <mxPoint x="-40" y="640" />
            </Array>
            <mxPoint as="offset" />
          </mxGeometry>
        </mxCell>
        <mxCell id="tF0CzcPY2EM89swh9l6V-59" value="productsList" style="edgeLabel;html=1;align=center;verticalAlign=middle;resizable=0;points=[];" parent="tF0CzcPY2EM89swh9l6V-58" vertex="1" connectable="0">
          <mxGeometry x="-0.2631" y="-1" relative="1" as="geometry">
            <mxPoint x="-116" y="-9" as="offset" />
          </mxGeometry>
        </mxCell>
        <mxCell id="uPVmZ090K0GS4C0PAcQj-1" value="" style="html=1;points=[];perimeter=orthogonalPerimeter;outlineConnect=0;targetShapes=umlLifeline;portConstraint=eastwest;newEdgeStyle={&quot;edgeStyle&quot;:&quot;elbowEdgeStyle&quot;,&quot;elbow&quot;:&quot;vertical&quot;,&quot;curved&quot;:0,&quot;rounded&quot;:0};" parent="tF0CzcPY2EM89swh9l6V-28" vertex="1">
          <mxGeometry x="45" y="510" width="10" height="20" as="geometry" />
        </mxCell>
        <mxCell id="uPVmZ090K0GS4C0PAcQj-2" value="1" style="html=1;verticalAlign=bottom;endArrow=open;dashed=1;endSize=8;edgeStyle=elbowEdgeStyle;elbow=vertical;curved=0;rounded=0;" parent="tF0CzcPY2EM89swh9l6V-28" edge="1">
          <mxGeometry relative="1" as="geometry">
            <mxPoint x="45" y="530" as="sourcePoint" />
            <mxPoint x="-130" y="530" as="targetPoint" />
          </mxGeometry>
        </mxCell>
        <mxCell id="uPVmZ090K0GS4C0PAcQj-3" value="4. MenuEmployee()" style="html=1;verticalAlign=bottom;endArrow=block;edgeStyle=elbowEdgeStyle;elbow=vertical;curved=0;rounded=0;" parent="tF0CzcPY2EM89swh9l6V-28" edge="1">
          <mxGeometry width="80" relative="1" as="geometry">
            <mxPoint x="-125" y="510" as="sourcePoint" />
            <mxPoint x="50" y="510" as="targetPoint" />
          </mxGeometry>
        </mxCell>
        <mxCell id="tF0CzcPY2EM89swh9l6V-31" value=": Utils" style="shape=umlLifeline;perimeter=lifelinePerimeter;whiteSpace=wrap;html=1;container=1;collapsible=0;recursiveResize=0;outlineConnect=0;rounded=1;shadow=0;comic=0;labelBackgroundColor=none;strokeWidth=1;fontFamily=Verdana;fontSize=12;align=center;" parent="1" vertex="1">
          <mxGeometry x="620" y="90" width="100" height="720" as="geometry" />
        </mxCell>
        <mxCell id="tF0CzcPY2EM89swh9l6V-32" value="" style="html=1;points=[];perimeter=orthogonalPerimeter;outlineConnect=0;targetShapes=umlLifeline;portConstraint=eastwest;newEdgeStyle={&quot;edgeStyle&quot;:&quot;elbowEdgeStyle&quot;,&quot;elbow&quot;:&quot;vertical&quot;,&quot;curved&quot;:0,&quot;rounded&quot;:0};" parent="tF0CzcPY2EM89swh9l6V-31" vertex="1">
          <mxGeometry x="45" y="260" width="10" height="40" as="geometry" />
        </mxCell>
        <mxCell id="tF0CzcPY2EM89swh9l6V-33" value="username" style="html=1;verticalAlign=bottom;endArrow=open;dashed=1;endSize=8;edgeStyle=elbowEdgeStyle;elbow=vertical;curved=0;rounded=0;" parent="tF0CzcPY2EM89swh9l6V-31" edge="1">
          <mxGeometry relative="1" as="geometry">
            <mxPoint x="45" y="290" as="sourcePoint" />
            <mxPoint x="-125.07142857142867" y="290" as="targetPoint" />
          </mxGeometry>
        </mxCell>
        <mxCell id="tF0CzcPY2EM89swh9l6V-34" value="" style="html=1;points=[];perimeter=orthogonalPerimeter;outlineConnect=0;targetShapes=umlLifeline;portConstraint=eastwest;newEdgeStyle={&quot;edgeStyle&quot;:&quot;elbowEdgeStyle&quot;,&quot;elbow&quot;:&quot;vertical&quot;,&quot;curved&quot;:0,&quot;rounded&quot;:0};" parent="tF0CzcPY2EM89swh9l6V-31" vertex="1">
          <mxGeometry x="45" y="310" width="10" height="40" as="geometry" />
        </mxCell>
        <mxCell id="tF0CzcPY2EM89swh9l6V-35" value="model: CompoStore" style="shape=umlLifeline;perimeter=lifelinePerimeter;whiteSpace=wrap;html=1;container=1;collapsible=0;recursiveResize=0;outlineConnect=0;rounded=1;shadow=0;comic=0;labelBackgroundColor=none;strokeWidth=1;fontFamily=Verdana;fontSize=12;align=center;" parent="1" vertex="1">
          <mxGeometry x="770" y="90" width="100" height="730" as="geometry" />
        </mxCell>
        <mxCell id="Z2WdJ4EV3QoHxpAlblBz-1" value="" style="html=1;points=[];perimeter=orthogonalPerimeter;outlineConnect=0;targetShapes=umlLifeline;portConstraint=eastwest;newEdgeStyle={&quot;edgeStyle&quot;:&quot;elbowEdgeStyle&quot;,&quot;elbow&quot;:&quot;vertical&quot;,&quot;curved&quot;:0,&quot;rounded&quot;:0};" parent="tF0CzcPY2EM89swh9l6V-35" vertex="1">
          <mxGeometry x="45" y="530" width="10" height="40" as="geometry" />
        </mxCell>
        <mxCell id="tF0CzcPY2EM89swh9l6V-37" value="controller: Controller" style="shape=umlLifeline;perimeter=lifelinePerimeter;whiteSpace=wrap;html=1;container=1;collapsible=0;recursiveResize=0;outlineConnect=0;rounded=1;shadow=0;comic=0;labelBackgroundColor=none;strokeWidth=1;fontFamily=Verdana;fontSize=12;align=center;" parent="1" vertex="1">
          <mxGeometry x="110" y="90" width="100" height="710" as="geometry" />
        </mxCell>
        <mxCell id="tF0CzcPY2EM89swh9l6V-38" value="" style="html=1;points=[];perimeter=orthogonalPerimeter;rounded=0;shadow=0;comic=0;labelBackgroundColor=none;strokeWidth=1;fontFamily=Verdana;fontSize=12;align=center;" parent="tF0CzcPY2EM89swh9l6V-37" vertex="1">
          <mxGeometry x="45" y="100" width="10" height="610" as="geometry" />
        </mxCell>
        <mxCell id="tF0CzcPY2EM89swh9l6V-39" value="2. insertCredentials()" style="html=1;verticalAlign=bottom;endArrow=block;edgeStyle=elbowEdgeStyle;elbow=vertical;curved=0;rounded=0;" parent="tF0CzcPY2EM89swh9l6V-37" target="tF0CzcPY2EM89swh9l6V-45" edge="1">
          <mxGeometry width="80" relative="1" as="geometry">
            <mxPoint x="55" y="200" as="sourcePoint" />
            <mxPoint x="135" y="200" as="targetPoint" />
          </mxGeometry>
        </mxCell>
        <mxCell id="tF0CzcPY2EM89swh9l6V-42" value="3. Login()" style="html=1;verticalAlign=bottom;endArrow=block;edgeStyle=elbowEdgeStyle;elbow=vertical;curved=0;rounded=0;" parent="tF0CzcPY2EM89swh9l6V-37" target="tF0CzcPY2EM89swh9l6V-49" edge="1">
          <mxGeometry x="0.0006" width="80" relative="1" as="geometry">
            <mxPoint x="55" y="442" as="sourcePoint" />
            <mxPoint x="890" y="442" as="targetPoint" />
            <mxPoint as="offset" />
          </mxGeometry>
        </mxCell>
        <mxCell id="tF0CzcPY2EM89swh9l6V-43" value="1. menuBegin" style="html=1;verticalAlign=bottom;endArrow=block;labelBackgroundColor=none;fontFamily=Verdana;fontSize=12;edgeStyle=elbowEdgeStyle;elbow=vertical;entryX=0.5;entryY=0.043;entryDx=0;entryDy=0;entryPerimeter=0;" parent="1" source="tF0CzcPY2EM89swh9l6V-38" target="tF0CzcPY2EM89swh9l6V-29" edge="1">
          <mxGeometry relative="1" as="geometry">
            <mxPoint x="230" y="200" as="sourcePoint" />
            <mxPoint x="290" y="200" as="targetPoint" />
            <Array as="points" />
          </mxGeometry>
        </mxCell>
        <mxCell id="tF0CzcPY2EM89swh9l6V-44" value="viewLogin: ViewLogin&amp;nbsp;" style="shape=umlLifeline;perimeter=lifelinePerimeter;whiteSpace=wrap;html=1;container=1;collapsible=0;recursiveResize=0;outlineConnect=0;rounded=1;shadow=0;comic=0;labelBackgroundColor=none;strokeWidth=1;fontFamily=Verdana;fontSize=12;align=center;" parent="1" vertex="1">
          <mxGeometry x="420" y="90" width="150" height="710" as="geometry" />
        </mxCell>
        <mxCell id="tF0CzcPY2EM89swh9l6V-45" value="" style="html=1;points=[];perimeter=orthogonalPerimeter;outlineConnect=0;targetShapes=umlLifeline;portConstraint=eastwest;newEdgeStyle={&quot;edgeStyle&quot;:&quot;elbowEdgeStyle&quot;,&quot;elbow&quot;:&quot;vertical&quot;,&quot;curved&quot;:0,&quot;rounded&quot;:0};" parent="tF0CzcPY2EM89swh9l6V-44" vertex="1">
          <mxGeometry x="70" y="190" width="10" height="200" as="geometry" />
        </mxCell>
        <mxCell id="tF0CzcPY2EM89swh9l6V-46" value="&lt;div&gt;2.1. getString()&lt;/div&gt;" style="html=1;verticalAlign=bottom;endArrow=block;edgeStyle=elbowEdgeStyle;elbow=vertical;curved=0;rounded=0;" parent="tF0CzcPY2EM89swh9l6V-44" edge="1">
          <mxGeometry x="0.0029" width="80" relative="1" as="geometry">
            <mxPoint x="80" y="270" as="sourcePoint" />
            <mxPoint x="249.5" y="270" as="targetPoint" />
            <Array as="points">
              <mxPoint x="200" y="270" />
            </Array>
            <mxPoint as="offset" />
          </mxGeometry>
        </mxCell>
        <mxCell id="tF0CzcPY2EM89swh9l6V-47" value="&amp;lt;&amp;lt;verify&amp;gt;&amp;gt;" style="html=1;verticalAlign=bottom;endArrow=block;edgeStyle=elbowEdgeStyle;elbow=vertical;curved=0;rounded=0;" parent="tF0CzcPY2EM89swh9l6V-44" edge="1">
          <mxGeometry width="80" relative="1" as="geometry">
            <mxPoint x="80" y="380" as="sourcePoint" />
            <mxPoint x="290" y="380" as="targetPoint" />
          </mxGeometry>
        </mxCell>
        <mxCell id="tF0CzcPY2EM89swh9l6V-48" value="Employee: Employee" style="shape=umlLifeline;perimeter=lifelinePerimeter;whiteSpace=wrap;html=1;container=1;collapsible=0;recursiveResize=0;outlineConnect=0;rounded=1;shadow=0;comic=0;labelBackgroundColor=none;strokeWidth=1;fontFamily=Verdana;fontSize=12;align=center;" parent="1" vertex="1">
          <mxGeometry x="910" y="90" width="200" height="730" as="geometry" />
        </mxCell>
        <mxCell id="tF0CzcPY2EM89swh9l6V-49" value="" style="html=1;points=[];perimeter=orthogonalPerimeter;outlineConnect=0;targetShapes=umlLifeline;portConstraint=eastwest;newEdgeStyle={&quot;edgeStyle&quot;:&quot;elbowEdgeStyle&quot;,&quot;elbow&quot;:&quot;vertical&quot;,&quot;curved&quot;:0,&quot;rounded&quot;:0};" parent="tF0CzcPY2EM89swh9l6V-48" vertex="1">
          <mxGeometry x="95" y="432" width="10" height="50" as="geometry" />
        </mxCell>
        <mxCell id="tF0CzcPY2EM89swh9l6V-50" value="Employee: Employee" style="html=1;whiteSpace=wrap;" parent="1" vertex="1">
          <mxGeometry x="710" y="450" width="90" height="30" as="geometry" />
        </mxCell>
        <mxCell id="tF0CzcPY2EM89swh9l6V-51" value="2.2. getString()" style="html=1;verticalAlign=bottom;endArrow=block;edgeStyle=elbowEdgeStyle;elbow=vertical;curved=0;rounded=0;" parent="1" edge="1">
          <mxGeometry x="0.0029" width="80" relative="1" as="geometry">
            <mxPoint x="500" y="410" as="sourcePoint" />
            <mxPoint x="670" y="410" as="targetPoint" />
            <Array as="points">
              <mxPoint x="620" y="410" />
            </Array>
            <mxPoint as="offset" />
          </mxGeometry>
        </mxCell>
        <mxCell id="tF0CzcPY2EM89swh9l6V-52" value="password" style="html=1;verticalAlign=bottom;endArrow=open;dashed=1;endSize=8;edgeStyle=elbowEdgeStyle;elbow=vertical;curved=0;rounded=0;" parent="1" source="tF0CzcPY2EM89swh9l6V-34" edge="1">
          <mxGeometry relative="1" as="geometry">
            <mxPoint x="660" y="430" as="sourcePoint" />
            <mxPoint x="500" y="430" as="targetPoint" />
          </mxGeometry>
        </mxCell>
        <mxCell id="tF0CzcPY2EM89swh9l6V-53" value="menuEmployee" style="html=1;verticalAlign=bottom;endArrow=open;dashed=1;endSize=8;edgeStyle=elbowEdgeStyle;elbow=vertical;curved=0;rounded=0;exitX=0.5;exitY=0.824;exitDx=0;exitDy=0;exitPerimeter=0;" parent="1" source="tF0CzcPY2EM89swh9l6V-49" edge="1">
          <mxGeometry x="-0.0047" relative="1" as="geometry">
            <mxPoint x="1000" y="563" as="sourcePoint" />
            <mxPoint x="166" y="563" as="targetPoint" />
            <mxPoint as="offset" />
            <Array as="points">
              <mxPoint x="700" y="563" />
            </Array>
          </mxGeometry>
        </mxCell>
        <mxCell id="tF0CzcPY2EM89swh9l6V-54" value="Employee" style="html=1;verticalAlign=bottom;endArrow=open;dashed=1;endSize=8;edgeStyle=elbowEdgeStyle;elbow=vertical;curved=0;rounded=0;entryX=1.02;entryY=0.688;entryDx=0;entryDy=0;entryPerimeter=0;" parent="1" edge="1">
          <mxGeometry x="0.1197" relative="1" as="geometry">
            <mxPoint x="494.5" y="480" as="sourcePoint" />
            <mxPoint x="165.19999999999993" y="480.24" as="targetPoint" />
            <mxPoint as="offset" />
          </mxGeometry>
        </mxCell>
        <mxCell id="tF0CzcPY2EM89swh9l6V-56" value="4. printProducts()" style="html=1;verticalAlign=bottom;endArrow=block;labelBackgroundColor=none;fontFamily=Verdana;fontSize=12;edgeStyle=elbowEdgeStyle;elbow=vertical;" parent="1" source="tF0CzcPY2EM89swh9l6V-38" target="Z2WdJ4EV3QoHxpAlblBz-6" edge="1">
          <mxGeometry x="0.0551" relative="1" as="geometry">
            <mxPoint x="340" y="706.1700000000001" as="sourcePoint" />
            <mxPoint x="1000" y="706" as="targetPoint" />
            <Array as="points">
              <mxPoint x="330" y="706" />
              <mxPoint x="330" y="706" />
              <mxPoint x="330" y="706" />
            </Array>
            <mxPoint as="offset" />
          </mxGeometry>
        </mxCell>
        <mxCell id="Z2WdJ4EV3QoHxpAlblBz-2" value="5. getProductList()" style="html=1;verticalAlign=bottom;endArrow=block;labelBackgroundColor=none;fontFamily=Verdana;fontSize=12;edgeStyle=elbowEdgeStyle;elbow=vertical;" parent="1" source="tF0CzcPY2EM89swh9l6V-38" target="Z2WdJ4EV3QoHxpAlblBz-1" edge="1">
          <mxGeometry x="0.2154" relative="1" as="geometry">
            <mxPoint x="170" y="640.1700000000001" as="sourcePoint" />
            <mxPoint x="839.5" y="640" as="targetPoint" />
            <Array as="points">
              <mxPoint x="560" y="630" />
              <mxPoint x="160" y="640" />
              <mxPoint x="160" y="640" />
            </Array>
            <mxPoint as="offset" />
          </mxGeometry>
        </mxCell>
        <mxCell id="Z2WdJ4EV3QoHxpAlblBz-4" value="productlist" style="html=1;verticalAlign=bottom;endArrow=open;dashed=1;endSize=8;edgeStyle=elbowEdgeStyle;elbow=vertical;curved=0;rounded=0;" parent="1" source="Z2WdJ4EV3QoHxpAlblBz-1" target="tF0CzcPY2EM89swh9l6V-38" edge="1">
          <mxGeometry x="-0.2154" relative="1" as="geometry">
            <mxPoint x="1020" y="573" as="sourcePoint" />
            <mxPoint x="176" y="573" as="targetPoint" />
            <mxPoint as="offset" />
            <Array as="points">
              <mxPoint x="810" y="660" />
            </Array>
          </mxGeometry>
        </mxCell>
        <mxCell id="Z2WdJ4EV3QoHxpAlblBz-5" value="productView: ProductView" style="shape=umlLifeline;perimeter=lifelinePerimeter;whiteSpace=wrap;html=1;container=1;collapsible=0;recursiveResize=0;outlineConnect=0;rounded=1;shadow=0;comic=0;labelBackgroundColor=none;strokeWidth=1;fontFamily=Verdana;fontSize=12;align=center;" parent="1" vertex="1">
          <mxGeometry x="1166" y="90" width="150" height="710" as="geometry" />
        </mxCell>
        <mxCell id="Z2WdJ4EV3QoHxpAlblBz-6" value="" style="html=1;points=[];perimeter=orthogonalPerimeter;outlineConnect=0;targetShapes=umlLifeline;portConstraint=eastwest;newEdgeStyle={&quot;edgeStyle&quot;:&quot;elbowEdgeStyle&quot;,&quot;elbow&quot;:&quot;vertical&quot;,&quot;curved&quot;:0,&quot;rounded&quot;:0};" parent="Z2WdJ4EV3QoHxpAlblBz-5" vertex="1">
          <mxGeometry x="70" y="610" width="10" height="50" as="geometry" />
        </mxCell>
      </root>
    </mxGraphModel>
  </diagram>
</mxfile>
